<svg width="20" height="20" viewBox="0 0 20 20" fill="none" xmlns="http://www.w3.org/2000/svg">
<path d="M10.0003 1.66675C5.40782 1.66675 1.66699 5.40758 1.66699 10.0001C1.66699 14.5926 5.40782 18.3334 10.0003 18.3334C14.5928 18.3334 18.3337 14.5926 18.3337 10.0001C18.3337 5.40758 14.5928 1.66675 10.0003 1.66675ZM10.0003 3.33341C13.6921 3.33341 16.667 6.30831 16.667 10.0001C16.667 13.6918 13.6921 16.6667 10.0003 16.6667C6.30856 16.6667 3.33366 13.6918 3.33366 10.0001C3.33366 6.30831 6.30856 3.33341 10.0003 3.33341ZM7.25618 6.07756L6.0778 7.25594L8.82194 10.0001L6.0778 12.7442L7.25618 13.9226L10.0003 11.1785L12.7445 13.9226L13.9229 12.7442L11.1787 10.0001L13.9229 7.25594L12.7445 6.07756L10.0003 8.8217L7.25618 6.07756Z" fill="#FF1806"/>
</svg>
