<svg width="20" height="21" viewBox="0 0 20 21" fill="none" xmlns="http://www.w3.org/2000/svg">
<path d="M10.0003 2.62378C5.40533 2.62378 1.66699 6.36211 1.66699 10.9571C1.66699 15.5521 5.40533 19.2904 10.0003 19.2904C14.5953 19.2904 18.3337 15.5521 18.3337 10.9571C18.3337 10.0188 18.1703 9.11895 17.8828 8.27645L16.5335 9.62573C16.621 10.0557 16.667 10.5013 16.667 10.9571C16.667 14.6329 13.6762 17.6238 10.0003 17.6238C6.32449 17.6238 3.33366 14.6329 3.33366 10.9571C3.33366 7.28128 6.32449 4.29045 10.0003 4.29045C11.3612 4.29045 12.6269 4.70202 13.6836 5.40535L14.8766 4.21232C13.5033 3.21732 11.8212 2.62378 10.0003 2.62378ZM17.7445 3.70125L9.16699 12.2787L6.42285 9.53459L5.24447 10.713L9.16699 14.6355L18.9229 4.87964L17.7445 3.70125Z" fill="#048404"/>
</svg>
