<?xml version="1.0" encoding="utf-8"?>
<!-- Generator: Adobe Illustrator 25.4.1, SVG Export Plug-In . SVG Version: 6.00 Build 0)  -->
<svg version="1.1" id="Layer_1" xmlns="http://www.w3.org/2000/svg" xmlns:xlink="http://www.w3.org/1999/xlink" x="0px" y="0px"
	 viewBox="0 0 85 85" style="enable-background:new 0 0 85 85;" xml:space="preserve">
<style type="text/css">
	.st0{fill:#FF1806;}
	.st1{display:none;fill:#FFFFFF;}
</style>
<path class="st0" d="M10,18.3l54.2-9.6c1.6-0.3,3.2,0.8,3.5,2.4l9,51.2c0.3,1.6-0.8,3.2-2.4,3.5L20,75.4c-1.6,0.3-3.2-0.8-3.5-2.4
	l-9-51.2C7.2,20.1,8.3,18.6,10,18.3z"/>
<path class="st0" d="M2.1,41L41,2.1c1.2-1.2,3.1-1.2,4.2,0L82,38.9c1.2,1.2,1.2,3.1,0,4.2L43.1,82c-1.2,1.2-3.1,1.2-4.2,0L2.1,45.3
	C0.9,44.1,0.9,42.2,2.1,41z"/>
<path class="st0" d="M6.5,62.2L20.8,9.1c0.4-1.6,2.1-2.6,3.7-2.1l50.2,13.5c1.6,0.4,2.6,2.1,2.1,3.7L62.5,77.2
	c-0.4,1.6-2.1,2.6-3.7,2.1L8.6,65.9C7,65.4,6.1,63.8,6.5,62.2z"/>
<path class="st1" d="M25.8,27.5h14.4v4.7l-5,1.7v-2h-4.5v4.5l9.8,2.4v9.9L37.3,52H29l-3.2-3.3v-5.5l5,1.5v2l0.8,0.9h3.1l0.9-0.9
	v-4.5l-9.8-2.4V27.5z M46.9,27.5h8.3l3.3,3.2v18L55.2,52h-8.3l-3.3-3.3v-18L46.9,27.5z M49.5,47.5h3.1l0.9-1V32.8l-0.8-0.9h-3.2
	l-0.9,0.9v13.8L49.5,47.5z"/>
<path class="st1" d="M27.7,53.9h2l0.8,0.8v2.6l-0.8,0.8h-2l-0.8-0.8v-2.6L27.7,53.9z M28.3,57H29l0.2-0.2v-1.6L29.1,55l-0.8,0
	l-0.2,0.2v1.6L28.3,57z M32.5,58.8h2l0.8,0.8v2.6L34.5,63h-2l-0.8-0.8v-2.6L32.5,58.8z M33.1,61.9h0.8l0.2-0.2v-1.6l-0.2-0.2h-0.8
	l-0.2,0.2v1.6L33.1,61.9z M32.9,53.9h1.5l-5,9.1h-1.5L32.9,53.9z M40.9,53.9H44l1.2,1.2v6.7L44,63h-3.1l-1.2-1.2v-6.7L40.9,53.9z
	 M41.9,61.3h1.2l0.3-0.4v-5.1l-0.3-0.3h-1.2l-0.4,0.4V61L41.9,61.3z M46.5,53.9h5l0.4,1.9l-0.8-0.3h-2.5v2h1.8l0.7-0.2v2.1l-0.7-0.2
	l-1.8,0v3.2l0.3,0.7h-2.4l0.2-0.7v-7.7L46.5,53.9z M52.9,53.9h5l0.4,1.9l-0.8-0.3H55v2h1.8l0.7-0.2v2.1l-0.7-0.2l-1.8,0v3.2l0.3,0.7
	h-2.4l0.2-0.7v-7.7L52.9,53.9z"/>
</svg>
