<svg width="26" height="26" viewBox="0 0 26 26" fill="none" xmlns="http://www.w3.org/2000/svg">
<path d="M18.8838 0.866211L17.1162 2.63379L19.9824 5.5H19.25C11.6707 5.5 5.5 11.6707 5.5 19.25V20.5H8V19.25C8 13.0218 13.0218 8 19.25 8H19.9824L17.1162 10.8662L18.8838 12.6338L24.7676 6.75L18.8838 0.866211ZM0.5 8V9.25V21.75C0.5 23.8062 2.19379 25.5 4.25 25.5H21.75C23.8062 25.5 25.5 23.8062 25.5 21.75V20.5V19.25H23V20.5V21.75C23 22.4563 22.4563 23 21.75 23H4.25C3.54371 23 3 22.4563 3 21.75V9.25V8H0.5Z" fill="white"/>
</svg>
