<svg width="40" height="40" viewBox="0 0 40 40" fill="none" xmlns="http://www.w3.org/2000/svg">
<g clip-path="url(#clip0_1980_3741)">
<path d="M25.8674 22.7233H24.7381L24.3379 22.3373C25.7387 20.7078 26.582 18.5923 26.582 16.291C26.582 11.1595 22.4225 7 17.291 7C12.1595 7 8 11.1595 8 16.291C8 21.4225 12.1595 25.582 17.291 25.582C19.5923 25.582 21.7078 24.7387 23.3373 23.3379L23.7233 23.7381V24.8674L30.8702 32L33 29.8702L25.8674 22.7233ZM17.291 22.7233C13.7318 22.7233 10.8588 19.8502 10.8588 16.291C10.8588 12.7318 13.7318 9.85878 17.291 9.85878C20.8502 9.85878 23.7233 12.7318 23.7233 16.291C23.7233 19.8502 20.8502 22.7233 17.291 22.7233Z" fill="white"/>
</g>
<defs>
<clipPath id="clip0_1980_3741">
<rect width="40" height="40" fill="white"/>
</clipPath>
</defs>
</svg>
